name D:\school\WTK\thesis\model\3dpredictsim\Results\MidTarsalJoint\Fal_s1_bCst_PF_Natali2010_ls150_MT_k800_d010_MTP_T5_ig24.mot
datacolumns 128
datarows 4
range 1.67483579 1.70833250
endheader
time	pelvis_tilt	pelvis_list	pelvis_rotation	pelvis_tx	pelvis_ty	pelvis_tz	hip_flexion_l	hip_adduction_l	hip_rotation_l	hip_flexion_r	hip_adduction_r	hip_rotation_r	knee_angle_l	knee_angle_r	ankle_angle_l	ankle_angle_r	subtalar_angle_l	subtalar_angle_r	mtj_angle_l	mtj_angle_r	mtp_angle_l	mtp_angle_r	lumbar_extension	lumbar_bending	lumbar_rotation	arm_flex_l	arm_add_l	arm_rot_l	arm_flex_r	arm_add_r	arm_rot_r	elbow_flex_l	elbow_flex_r	pro_sup_l	pro_sup_r	glut_med1_l/activation	glut_med2_l/activation	glut_med3_l/activation	glut_min1_l/activation	glut_min2_l/activation	glut_min3_l/activation	semimem_l/activation	semiten_l/activation	bifemlh_l/activation	bifemsh_l/activation	sar_l/activation	add_long_l/activation	add_brev_l/activation	add_mag1_l/activation	add_mag2_l/activation	add_mag3_l/activation	tfl_l/activation	pect_l/activation	grac_l/activation	glut_max1_l/activation	glut_max2_l/activation	glut_max3_l/activation	iliacus_l/activation	psoas_l/activation	quad_fem_l/activation	gem_l/activation	peri_l/activation	rect_fem_l/activation	vas_med_l/activation	vas_int_l/activation	vas_lat_l/activation	med_gas_l/activation	lat_gas_l/activation	soleus_l/activation	tib_post_l/activation	flex_dig_l/activation	flex_hal_l/activation	tib_ant_l/activation	per_brev_l/activation	per_long_l/activation	per_tert_l/activation	ext_dig_l/activation	ext_hal_l/activation	ercspn_l/activation	intobl_l/activation	extobl_l/activation	glut_med1_r/activation	glut_med2_r/activation	glut_med3_r/activation	glut_min1_r/activation	glut_min2_r/activation	glut_min3_r/activation	semimem_r/activation	semiten_r/activation	bifemlh_r/activation	bifemsh_r/activation	sar_r/activation	add_long_r/activation	add_brev_r/activation	add_mag1_r/activation	add_mag2_r/activation	add_mag3_r/activation	tfl_r/activation	pect_r/activation	grac_r/activation	glut_max1_r/activation	glut_max2_r/activation	glut_max3_r/activation	iliacus_r/activation	psoas_r/activation	quad_fem_r/activation	gem_r/activation	peri_r/activation	rect_fem_r/activation	vas_med_r/activation	vas_int_r/activation	vas_lat_r/activation	med_gas_r/activation	lat_gas_r/activation	soleus_r/activation	tib_post_r/activation	flex_dig_r/activation	flex_hal_r/activation	tib_ant_r/activation	per_brev_r/activation	per_long_r/activation	per_tert_r/activation	ext_dig_r/activation	ext_hal_r/activation	ercspn_r/activation	intobl_r/activation	extobl_r/activation	
          1.67483579	         -2.93007080	          2.05925445	         -4.79009422	          2.09354473	          0.91958561	          0.00193097	         29.64098904	          3.42117185	         -1.83224481	        -17.28311713	         -0.81586385	          6.43851554	        -11.93943415	         -5.81323601	          6.29739097	         -0.04901265	         -5.61088764	          6.88362575	         -0.01425364	          2.18696646	         -0.88158989	         16.33089464	         -2.07096894	         -0.23586960	          1.92799025	         -4.96804188	        -13.46099277	          5.36187975	          4.71064508	        -13.45011676	         15.10835543	         17.88638059	         33.91315854	         86.51662706	         86.51662706	          0.09737283	          0.05000014	          0.05930477	          0.05000009	          0.05000012	          0.05000070	          0.21629289	          0.05930503	          0.05930750	          0.05000027	          0.05000082	          0.09191430	          0.20107768	          0.20408732	          0.15524847	          0.11483752	          0.05930467	          0.05005421	          0.06331671	          0.07033857	          0.07034198	          0.12070552	          0.05000008	          0.05000011	          0.26671658	          0.05046210	          0.05000043	          0.05000022	          0.09137566	          0.09171646	          0.07964833	          0.05000075	          0.05000057	          0.05880399	          0.05000008	          0.05000045	          0.05000043	          0.48902369	          0.29892043	          0.18374061	          0.16875660	          0.46979446	          0.19913408	          0.06549216	          0.12780846	          0.11737168	          0.32416425	          0.11051465	          0.08343032	          0.33251684	          0.21216501	          0.11737332	          0.05000094	          0.05000025	          0.05000016	          0.06784105	          0.11727560	          0.05000015	          0.05000012	          0.05000018	          0.05000053	          0.05000040	          0.33515749	          0.05000066	          0.05000049	          0.05002267	          0.05000272	          0.05000101	          0.42947827	          0.64913739	          0.05000028	          0.05000072	          0.06631421	          0.23061759	          0.05000049	          0.05000036	          0.05000034	          0.31769547	          0.43569277	          0.32579576	          0.28619902	          0.30508116	          0.37818789	          0.05000004	          0.05081257	          0.12867174	          0.05000023	          0.05000006	          0.05000022	          0.05000001	          0.05000001	          0.05000003	
          1.68600136	         -2.92881030	          2.15592108	         -5.08965907	          2.11011435	          0.91858178	          0.00173289	         29.06415950	          3.75787375	         -1.62644205	        -17.23611942	         -1.11341681	          6.21484294	        -11.79869264	         -7.58567790	          5.75878957	         -0.59714761	         -5.98307093	          7.78734666	          0.00408375	          1.82855245	         -0.87886012	         17.63060947	         -1.88612020	         -0.44012554	          1.99614627	         -5.78001259	        -13.45951819	          5.12946633	          4.49123982	        -13.45425341	         15.49057228	         17.42458120	         35.06672040	         86.51662706	         86.51662706	          0.08209556	          0.05712496	          0.05000022	          0.05930518	          0.05930465	          0.05000058	          0.18814469	          0.05000051	          0.05000247	          0.05000048	          0.05000118	          0.10683384	          0.16953029	          0.23038026	          0.17905287	          0.11595260	          0.05000027	          0.05001721	          0.05338302	          0.05930298	          0.05930569	          0.13289346	          0.05158542	          0.05000203	          0.51433796	          0.14334607	          0.07224059	          0.07034094	          0.17790417	          0.17834396	          0.15227251	          0.05000001	          0.05000003	          0.05000000	          0.05000024	          0.05000079	          0.05000069	          0.54510870	          0.26183876	          0.19911656	          0.31898222	          0.49244405	          0.19066356	          0.05521675	          0.10775587	          0.09895658	          0.27330445	          0.09317540	          0.07034051	          0.28034651	          0.17887729	          0.09895799	          0.05000179	          0.05000040	          0.05000037	          0.05719716	          0.09887578	          0.09203144	          0.05565135	          0.05000565	          0.05000466	          0.05000192	          0.28257289	          0.07673939	          0.05000767	          0.05000235	          0.05000184	          0.05000163	          0.36209506	          0.59980659	          0.05000066	          0.05002125	          0.05930469	          0.19598826	          0.05000210	          0.13055158	          0.13169605	          0.26785043	          0.36733451	          0.29644831	          0.27857111	          0.26542712	          0.35263554	          0.05000005	          0.05000062	          0.13119186	          0.05000024	          0.05000006	          0.05000026	          0.05000005	          0.07034077	          0.05000005	
          1.69716693	         -2.92387614	          2.25081279	         -5.36675212	          2.12700112	          0.91764418	          0.00154494	         28.39202351	          4.03779462	         -1.36730336	        -17.11911523	         -1.41073246	          5.98460599	        -12.22627168	         -9.47589815	          5.13422090	         -1.29397771	         -6.36639335	          8.66832092	         -0.09637815	          1.39676642	         -0.90268363	         18.92111016	         -1.67988611	         -0.65084494	          2.05414059	         -6.63243066	        -13.46102869	          4.93209092	          4.20147742	        -13.45673330	         15.81775884	         17.02872084	         36.18695240	         86.51662706	         86.51662706	          0.23915757	          0.05000006	          0.23054208	          0.05000052	          0.05000017	          0.12777139	          0.17249497	          0.05000055	          0.06723485	          0.05000013	          0.05000091	          0.09007234	          0.21685816	          0.19423493	          0.15096067	          0.13221161	          0.05000046	          0.05931752	          0.10138937	          0.05000015	          0.05000099	          0.11204333	          0.05930380	          0.05000134	          0.43364059	          0.12085577	          0.14101636	          0.05930477	          0.14999184	          0.15036263	          0.12838166	          0.05830986	          0.05930474	          0.05808389	          0.05930445	          0.05000166	          0.05000208	          0.45958365	          0.28939751	          0.16787615	          0.26893547	          0.52218566	          0.16074933	          0.05000004	          0.11431865	          0.08343072	          0.31063799	          0.07855661	          0.05930443	          0.23636155	          0.15081227	          0.08343194	          0.05000120	          0.05000051	          0.05000049	          0.05000013	          0.08336284	          0.13334428	          0.06127101	          0.05930534	          0.05930371	          0.05930424	          0.23823865	          0.08342451	          0.05001720	          0.05000968	          0.05000636	          0.05008123	          0.30528403	          0.56903914	          0.05162672	          0.05000092	          0.05000015	          0.16523858	          0.15032375	          0.11126688	          0.11103592	          0.22582586	          0.30970133	          0.24993686	          0.23490725	          0.22378312	          0.29730895	          0.05000002	          0.05000125	          0.15925128	          0.05000009	          0.05000002	          0.05000012	          0.05005459	          0.05930463	          0.05708735	
          1.70833250	         -2.91701492	          2.34650783	         -5.61393382	          2.14404923	          0.91678109	          0.00134793	         27.62307671	          4.27637071	         -1.10122948	        -16.91382246	         -1.70648960	          5.75395687	        -12.70430350	        -11.49525610	          4.59145062	         -2.15823889	         -6.74486988	          9.50643690	         -0.07393142	          0.93464265	         -0.88971936	         20.12603011	         -1.46848621	         -0.87006265	          2.10321284	         -7.48707377	        -13.46607412	          4.78443467	          3.86279574	        -13.46077509	         16.09931908	         16.67870700	         37.26530562	         86.51662706	         86.51662706	          0.30213428	          0.25817030	          0.31790818	          0.14858224	          0.19612993	          0.13574899	          0.14543128	          0.07190949	          0.05668610	          0.07829219	          0.05000198	          0.07594041	          0.18283408	          0.16376045	          0.12727583	          0.14419315	          0.05000050	          0.05001115	          0.08548217	          0.19547691	          0.15049231	          0.12062047	          0.05000007	          0.05000010	          0.36560431	          0.10189418	          0.11889171	          0.05000016	          0.12645893	          0.12677161	          0.10823927	          0.05000009	          0.05000027	          0.05000002	          0.05000005	          0.05000018	          0.05000022	          0.58095781	          0.34517413	          0.19124170	          0.47978751	          0.54958319	          0.25921420	          0.07212741	          0.10352618	          0.07034081	          0.29132787	          0.06623144	          0.05000008	          0.34600984	          0.12715055	          0.07034188	          0.05000195	          0.05000017	          0.05000013	          0.05000026	          0.07028432	          0.13055293	          0.05165803	          0.05000088	          0.05000100	          0.05000051	          0.23607630	          0.07033729	          0.05000050	          0.05000114	          0.05000071	          0.05000047	          0.25738639	          0.53343871	          0.05000008	          0.05000056	          0.05000035	          0.13933858	          0.12682986	          0.09381056	          0.13921345	          0.19039475	          0.26111053	          0.21072284	          0.19805144	          0.18867268	          0.25066260	          0.05000002	          0.08564039	          0.15381394	          0.05000018	          0.05000010	          0.05000018	          0.06293864	          0.05000001	          0.05000002	
